<svg xmlns="http://www.w3.org/2000/svg" viewBox="0 0 193 48" width="193" height="48">
  <defs>
    <style>.cls-1{fill:#fc4c02;}</style>
  </defs>
  <title>api_logo_pwrdBy_strava_stack_light</title>
  <g id="Layer_2" data-name="Layer 2">
    <g id="Layer_1-2" data-name="Layer 1">
      <path class="cls-1" d="M45.91,25.63l3.31-6.39h5.33L45.91,36.18,37.26,19.24h5.34Z"/>
      <path class="cls-1" d="M54.55,19.24l3.31-6.39h5.33L54.55,29.79,45.91,12.85h5.33Z"/>
      <polygon class="cls-1" points="80.03 23.79 80.03 30.93 72.85 30.93 72.85 23.79 70.33 23.79 70.33 40.49 72.85 40.49 72.85 33.2 80.03 33.2 80.03 40.49 82.55 40.49 82.55 23.79 80.03 23.79"/>
      <path class="cls-1" d="M94.69,27.73a6.84,6.84,0,1,0,6.84,6.83A6.84,6.84,0,0,0,94.69,27.73Zm0,11.47a4.64,4.64,0,1,1,4.31-4.64A4.48,4.48,0,0,1,94.69,39.2Z"/>
      <path class="cls-1" d="M124,32.73l-3.2-4.7h2.94l1.82,2.86L127.4,28h2.94l-3.21,4.7,3.58,5.28H127.8l-2.21-3.47-2.22,3.47h-2.91Z"/>
      <polygon class="cls-1" points="156.56 30.27 156.56 28.03 149.18 28.03 149.18 38.01 156.56 38.01 156.56 35.77 151.7 35.77 151.7 33.9 155.77 33.9 155.77 31.76 151.7 31.76 151.7 30.27 156.56 30.27"/>
      <path class="cls-1" d="M168.11,28h-4.67v10h2.52V35h2.15a3.5,3.5,0,1,0,0-7Zm0,4.76h-2.15V30.27h2.15a1.25,1.25,0,0,1,0,2.49Z"/>
      <path class="cls-1" d="M182,28h-4.66v10h2.52V35H182a3.5,3.5,0,0,0,0-7Zm0,4.76h-2.14V30.27H182a1.25,1.25,0,1,1,0,2.49Z"/>
      <path class="cls-1" d="M115.14,32.23a2.76,2.76,0,0,0,1.36-2.44c0-2.71-3-1.76-4.75-1.76h-3.83v10h4.29c2.18,0,4.43-.09,4.43-2.78A2.86,2.86,0,0,0,115.14,32.23Zm-4.7-2.06h1.62c.67,0,1.67,0,1.67.94s-.89,1-1.6,1h-1.69Zm1.8,5.66h-1.8V33.25h1.67c.86,0,1.85.15,1.85,1.2S113.14,35.83,112.24,35.83Z"/>
      <polygon class="cls-1" points="142.03 28.03 138.82 35.04 135.62 28.03 132.77 28.03 137.56 38.01 140.08 38.01 144.87 28.03 142.03 28.03"/>
      <path class="cls-1" d="M105,28l-4.29,10h2.63l.65-1.68h4.45L109.1,38h2.63L107.44,28Zm-.22,6.29,1.43-3.68,1.43,3.68Z"/>
      <polygon class="cls-1" points="65.09 12.85 57.26 12.85 57.26 14.91 60.06 14.91 60.06 23.63 62.3 23.63 62.3 14.91 65.09 14.91 65.09 12.85"/>
      <path class="cls-1" d="M71.61,12.85l-4.29,10H70l.65-1.68h4.45l.65,1.68H78.4l-4.29-10Zm-.22,6.29,1.43-3.68,1.43,3.68Z"/>
      <polygon class="cls-1" points="88.16 17.05 84.95 24.05 81.74 17.05 78.9 17.05 83.69 27.03 86.21 27.03 91 17.05 88.16 17.05"/>
      <path class="cls-1" d="M96.65,17.05l-4.29,10h2.63l.65-1.68h4.45l.65,1.68h2.63l-4.29-10Zm-.22,6.29L97.86,19.66l1.43,3.68Z"/>
      <polygon class="cls-1" points="16.26 12.85 8.08 12.85 8.08 23.63 10.6 23.63 10.6 20.11 15.78 20.11 15.78 17.87 10.6 17.87 10.6 15.09 16.26 15.09 16.26 12.85"/>
      <path class="cls-1" d="M24.42,16.77A3.49,3.49,0,0,0,21.23,14V12.85h-4v10h2.52V20.36l3.24,3.27h3.27l-3.74-3.75A3.38,3.38,0,0,0,24.42,16.77Zm-5.67,1.35V15.09h2.14a1.52,1.52,0,0,1,0,3Z"/>
      <path class="cls-1" d="M36,12.61a5.66,5.66,0,1,0,5.65,5.65A5.64,5.64,0,0,0,36,12.61Zm0,9.1A3.45,3.45,0,1,1,39.39,18.26,3.44,3.44,0,0,1,36,21.71Z"/>
      <polygon class="cls-1" points="0 21.15 0 23.63 2.77 23.63 2.77 27.03 5.29 27.03 5.29 23.63 8.08 23.63 8.08 21.15 5.29 21.15 5.29 17.05 2.77 17.05 2.77 21.15 0 21.15"/>
      <path class="cls-1" d="M191.72,34.2a1.28,1.28,0,1,0,1.28,1.28A1.28,1.28,0,0,0,191.72,34.2Zm0,2.32a1,1,0,1,1,1-1A1,1,0,0,1,191.72,36.52Z"/>
      <path class="cls-1" d="M192.14,35.26a.4.4,0,0,0-.4-.4h-.51v1.3h.23v-.5h.16l.29.5h.26l-.32-.53A.4.4,0,0,0,192.14,35.26Zm-.4.2h-.28v-.4h.28a.2.2,0,0,1,0,.4Z"/>
    </g>
  </g>
</svg>
